<?xml version="1.0" encoding="utf-8"?>
<!-- Generator: Adobe Illustrator 25.0.1, SVG Export Plug-In . SVG Version: 6.00 Build 0)  -->
<svg version="1.0" id="katman_1" xmlns="http://www.w3.org/2000/svg" xmlns:xlink="http://www.w3.org/1999/xlink" x="0px" y="0px"
	 viewBox="0 0 2170.6 1511.7" style="enable-background:new 0 0 2170.6 1511.7;" xml:space="preserve">
<style type="text/css">
	.st0{fill:#1797E5;stroke:#122A44;stroke-width:18.911;stroke-miterlimit:10;}
	.st1{fill:url(#SVGID_1_);stroke:#122A44;stroke-width:5.673;stroke-linejoin:round;}
	.st2{fill:url(#SVGID_2_);stroke:#122A44;stroke-width:5.673;stroke-linejoin:round;}
	.st3{fill:#1797E5;stroke:#122A44;stroke-width:20.802;stroke-miterlimit:10;}
	.st4{fill:#1797E5;stroke:#122A44;stroke-width:21.874;stroke-miterlimit:10;}
	.st5{fill:#7DA4B7;}
	.st6{fill:#122A44;}
	.st7{fill:#5DC5F9;}
	.st8{fill:url(#SVGID_3_);stroke:#122A44;stroke-width:18.911;stroke-miterlimit:10;}
	.st9{fill:url(#SVGID_4_);}
	.st10{fill:url(#SVGID_5_);stroke:#122A44;stroke-width:13.237;stroke-linejoin:round;}
	.st11{fill:#C91111;stroke:#122A44;stroke-width:18.911;stroke-miterlimit:10;}
	.st12{fill:#750606;}
	.st13{fill:#3D0000;}
	.st14{fill:url(#SVGID_6_);stroke:#4F1A00;stroke-width:18.911;stroke-miterlimit:10;}
	.st15{fill:url(#SVGID_7_);stroke:#4F1A00;stroke-width:13.237;stroke-linejoin:round;}
	.st16{fill:#F7AE2D;stroke:#4F1A00;stroke-width:18.911;stroke-miterlimit:10;}
	.st17{opacity:0.63;fill:#FFFFFF;enable-background:new    ;}
	.st18{fill:#4F1A00;}
	.st19{fill:#FFFFFF;}
	.st20{fill:url(#SVGID_8_);}
	.st21{fill:#1797E5;stroke:#122A44;stroke-width:17.02;stroke-miterlimit:10;}
	.st22{fill:url(#SVGID_9_);}
	.st23{fill:#1797E5;stroke:#122A44;stroke-width:18.911;stroke-linejoin:round;}
	.st24{fill:url(#SVGID_10_);}
	.st25{fill:url(#SVGID_11_);}
	.st26{fill:#1797E5;stroke:#122A44;stroke-width:5.673;stroke-miterlimit:10;}
	.st27{fill:none;stroke:#122A44;stroke-width:11.346;stroke-linecap:round;stroke-miterlimit:10;}
	.st28{fill:#F3F5F7;stroke:#122A44;stroke-width:11.346;stroke-linejoin:round;}
	.st29{fill:none;stroke:#122A44;stroke-width:11.346;stroke-linecap:round;stroke-linejoin:round;}
	.st30{fill:#F3F5F7;stroke:#122A44;stroke-width:11.346;stroke-linecap:round;stroke-linejoin:round;}
	.st31{fill:none;stroke:#122A44;stroke-width:9.455;stroke-linecap:round;stroke-linejoin:round;}
	.st32{fill:url(#SVGID_12_);stroke:#122A44;stroke-width:5.673;stroke-linejoin:round;}
	.st33{fill:url(#SVGID_13_);stroke:#122A44;stroke-width:5.673;stroke-linejoin:round;}
	.st34{fill:url(#SVGID_14_);stroke:#122A44;stroke-width:5.673;stroke-linejoin:round;}
	.st35{fill:none;stroke:#000000;stroke-width:3.782;stroke-linecap:round;stroke-linejoin:round;}
	.st36{fill:url(#SVGID_15_);}
	.st37{fill:url(#SVGID_16_);}
	.st38{fill:url(#SVGID_17_);}
	.st39{fill:url(#SVGID_18_);}
	.st40{fill:url(#SVGID_19_);}
	.st41{fill:url(#SVGID_20_);}
	.st42{fill:url(#SVGID_21_);stroke:#122A44;stroke-width:8.51;stroke-linejoin:round;}
	.st43{fill:url(#SVGID_22_);stroke:#122A44;stroke-width:8.51;stroke-linejoin:round;}
	.st44{fill:url(#SVGID_23_);stroke:#122A44;stroke-width:8.51;stroke-linejoin:round;}
	.st45{fill:url(#SVGID_24_);}
	.st46{fill:url(#SVGID_25_);}
	.st47{fill:url(#SVGID_26_);}
	.st48{fill:url(#SVGID_27_);}
	.st49{fill:url(#SVGID_28_);}
	.st50{fill:url(#SVGID_29_);}
	.st51{fill:url(#SVGID_30_);}
</style>
<path class="st0" d="M1327.8,420.9c0,0,20.8-20.8,30.3-41.6c0,0-22.7-26.5,0-53c0,0,5.7-34-18.9-52.9c0,0,43.5-34,92.7,24.6
	c0,0,15.1-11.3,28.4,7.6c0,0,145.6,37.8,98.3,300.7L1327.8,420.9z"/>
<linearGradient id="SVGID_1_" gradientUnits="userSpaceOnUse" x1="1455.4529" y1="1054.6246" x2="1379.6329" y2="1079.8746" gradientTransform="matrix(1 0 0 -1 0 1511.0122)">
	<stop  offset="0.33" style="stop-color:#F3F5F7"/>
	<stop  offset="0.78" style="stop-color:#8099B9"/>
</linearGradient>
<path class="st1" d="M1408.2,391.6c0,0,17,5.7,26.5-3.8c0,0,33.4,63.7,9.1,126.4l-75.3-50.7C1368.5,463.4,1408.2,444.5,1408.2,391.6
	z"/>
<linearGradient id="SVGID_2_" gradientUnits="userSpaceOnUse" x1="1520.6809" y1="1040.3488" x2="1433.401" y2="1044.3687" gradientTransform="matrix(1 4.886902e-03 4.886902e-03 -1 -2.65 1503.601)">
	<stop  offset="0.33" style="stop-color:#F3F5F7"/>
	<stop  offset="0.37" style="stop-color:#E4E9EF"/>
	<stop  offset="0.48" style="stop-color:#C0CCDC"/>
	<stop  offset="0.59" style="stop-color:#A4B6CC"/>
	<stop  offset="0.7" style="stop-color:#90A6C2"/>
	<stop  offset="0.81" style="stop-color:#849CBB"/>
	<stop  offset="0.91" style="stop-color:#8099B9"/>
</linearGradient>
<path class="st2" d="M1448.3,378.1c0,0,17,0.1,26.5-13.1c0,0,81,64.1,41.5,208.5l-55.5-55.4C1460.9,518.1,1493.3,452.1,1448.3,378.1
	z"/>
<path class="st3" d="M601.2,537.9c0,0-116.8,43.7-99.8,106.1c0,0,3.6,20.5,40.6,15C542,659,623.4,543.3,601.2,537.9z"/>
<path class="st4" d="M557.6,961.7c0,0-49.2,58.5-5.9,122.4c2.7,4.1,7.8,5.8,12.5,4.3c14.3-4.8,45.4-21,73.3-75.6L557.6,961.7z
	 M635.1,1119.4c-4,20.4-8.6,66.6,25.6,93.2c2.2,1.7,5.1,2.2,7.7,1.2c9.4-3.3,32.5-15.2,52.6-53.8c2.1-4,0.5-8.9-3.4-10.9
	c0,0-0.1,0-0.1-0.1l-70.7-35.4c-4-2-8.9-0.4-10.9,3.6C635.5,1118,635.2,1118.7,635.1,1119.4z"/>
<path class="st5" d="M1411,394.4c0,0-1.4,47.5-30,60.6l15.4,1.6c0,0,18.4-22.5,18.4-60.4L1411,394.4z M1452.6,381.2
	c0,0,35.9,56.7,15.1,113.5l11.3,5.7c0,0,24.6-56.7-18.9-121L1452.6,381.2z"/>
<path class="st4" d="M543.5,731.4c0,0-94.1,92.1-51,144.4c0,0,12.2,18.1,45.6-3.2C538,872.6,567.3,727,543.5,731.4L543.5,731.4z"/>
<path class="st6" d="M766.7,1275.8c0,0,13.3,47.7,46.3,62.7c0,0,53.5,11.4,20.4-84.2L766.7,1275.8z"/>
<path class="st7" d="M578.9,568.4c0,0-68.1,28.4-60.5,79.4c0,0-13.2-1.9-7.6-24.6c0,0,3.8-32.1,64.3-62.4l15.1-7.6l-9.5,15.1H578.9z
	 M531.7,761.3c0,0-66.2,71.9-28.4,109.7c0,0-1.9-71.9,39.7-98.3L531.7,761.3z M567.6,978.7c0,0-26.5,47.3-1.9,92.7
	c0,0,11.3-3.8,13.2-7.6c0,0-1.9,9.5-17,15.1c0,0-39.7-39.7-1.9-104L567.6,978.7z M648.9,1143.3c0,0,1.9,41.6,20.8,54.8
	c0,0,1.9,0,5.7-1.9c0,0-1.9,5.7-9.5,7.6c0,0-28.4-20.8-22.7-60.5H648.9z"/>
<linearGradient id="SVGID_3_" gradientUnits="userSpaceOnUse" x1="1389.5958" y1="475.0782" x2="1573.0359" y2="371.7281" gradientTransform="matrix(1 0 0 -1 0 1511.0122)">
	<stop  offset="0.12" style="stop-color:#1797E5"/>
	<stop  offset="0.14" style="stop-color:#1693E1"/>
	<stop  offset="0.33" style="stop-color:#0A6FBA"/>
	<stop  offset="0.48" style="stop-color:#0358A2"/>
	<stop  offset="0.57" style="stop-color:#005099"/>
	<stop  offset="0.71" style="stop-color:#0663AD"/>
	<stop  offset="0.99" style="stop-color:#1694E2"/>
	<stop  offset="1" style="stop-color:#1797E5"/>
</linearGradient>
<path class="st8" d="M1568,929.6c0,0,92.7-172.1-13.2-317.7l-30.3-56.7c0,0-3.8-9.5-13.2-7.6c0,0-26.5-45.4-58.6-53
	c0,0-24.6-37.8-70-39.7c0,0-11.3-53-71.9-43.5c0,0-13.2-53-68.1-30.3c0,0-9.4-28.4-43.5-18.9c0,0-1.9-51.1-132.4-11.4
	c0,0-391.5-54.8-469,181.5c0,0-3.5,8.8,6.5,11.1c0.3,0.1,0.5,0.4,0.5,0.7c0,0.1-0.1,0.2-0.1,0.3c-13.1,15.1-20.8,34.1-21.9,54
	c0,0-66.2,45.4-34,119.1c0,0-22.7,53,3.8,88.9c0,0-37.8,49.2,3.8,96.4c0,0-26.5,54.8,30.2,85.1c0,0-22.7,56.7,28.4,75.6
	c0,0-1.9,68.1,60.5,87c0,0,1.9,37.8,41.6,43.5c0,0-18.9,53,49.2,71.9c0,0,32.1,64.3,79.4,32.1c0,0,30.2,41.6,100.2,32.2
	c0,0,43.5,37.8,113.5,18.9c0,0,47.3,22.7,107.8-11.3c0,0,35.9,17,68.1-11.3c0,0,54.8,1.9,73.8-18.9c0,0,32.2,11.3,58.6-7.6
	c0,0,60.5-13.2,77.5,13.2c0,0,22.7,43.5-20.8,90.8c0,0,105.9,22.7,113.5-109.7c0,0,5.7-71.9-79.4-90.8L1568,929.6z"/>
<linearGradient id="SVGID_4_" gradientUnits="userSpaceOnUse" x1="816.1115" y1="910.194" x2="1464.2914" y2="307.604" gradientTransform="matrix(1 0 0 -1 0 1511.0122)">
	<stop  offset="0.13" style="stop-color:#1797E5"/>
	<stop  offset="0.26" style="stop-color:#1693E1"/>
	<stop  offset="0.4" style="stop-color:#1287D4"/>
	<stop  offset="0.54" style="stop-color:#0B73BE"/>
	<stop  offset="0.69" style="stop-color:#0257A0"/>
	<stop  offset="0.72" style="stop-color:#005099"/>
</linearGradient>
<ellipse class="st9" cx="1104.6" cy="869.1" rx="442.5" ry="434.9"/>
<linearGradient id="SVGID_5_" gradientUnits="userSpaceOnUse" x1="1129.8613" y1="446.8851" x2="919.5212" y2="886.8651" gradientTransform="matrix(1 0 0 -1 0 1511.0122)">
	<stop  offset="0.33" style="stop-color:#F3F5F7"/>
	<stop  offset="0.78" style="stop-color:#8099B9"/>
</linearGradient>
<path class="st10" d="M1191.8,603.4l30.1,35c0,0,22.7-79.4-30.3,232.6l-30.3,88.9l-377.3-35c0,0-51.1-9.5-44.5-66.9L1191.8,603.4"/>
<path class="st11" d="M766.1,655.4l18.9-117.2l408.5,53l-17,121l-30.2,196.7l-408.5-51.1L766.1,655.4L766.1,655.4z"/>
<path class="st12" d="M762.4,748l-5.7,35.9l124.8,15.1l189.1,41.6v-20.8l92.1,18.1l4.4-38.9L762.4,748z"/>
<path class="st13" d="M1125.2,609.9l-275.9-39.7c-13.9,39.7-53,43.5-53,43.5l-30.2,186.6c43.6,11.9,45.4,55.4,45.4,55.4l278,37.8
	c13.9-43.7,51-35.9,51-35.9l28.4-192.9C1117.4,647,1125.2,609.9,1125.2,609.9z M1134.9,850.1c0,0-37.8-5.7-51.1,35.9l-264.7-35.9
	c0,0-1.9-41.6-43.5-53l24.6-141.8l5.7-34c0,0,37.8-5.7,51-43.5l261,37.8c0,0-7.6,37.8,41.5,54.8L1134.9,850.1z"/>
<linearGradient id="SVGID_6_" gradientUnits="userSpaceOnUse" x1="1202.1438" y1="723.5184" x2="1010.0039" y2="765.4684" gradientTransform="matrix(1 0 0 -1 0 1511.0122)">
	<stop  offset="0.17" style="stop-color:#F7AE2D"/>
	<stop  offset="0.86" style="stop-color:#B04211"/>
</linearGradient>
<path class="st14" d="M1057.4,700.8l124.8,20.8l64.3,92.7l-56.7,32.2l-17-37.8l-122.9-22.7L1057.4,700.8z"/>
<linearGradient id="SVGID_7_" gradientUnits="userSpaceOnUse" x1="738.6179" y1="796.4172" x2="881.9479" y2="783.8872" gradientTransform="matrix(1 0 0 -1 0 1511.0122)">
	<stop  offset="0.17" style="stop-color:#F7AE2D"/>
	<stop  offset="0.86" style="stop-color:#B04211"/>
</linearGradient>
<path class="st15" d="M746.3,662l136.2,17l-13.2,85.1L742.5,749l-3.8,18.9C738.7,767.9,736.8,680.9,746.3,662L746.3,662z"/>
<path class="st16" d="M872,636.5l-20.8,160.7l200.5,28.4l22.7-162.6L872,636.5L872,636.5z"/>
<path class="st17" d="M1061.2,691.3l-5.7,37.8L989.3,801l-7.6-27.4L1061.2,691.3z M962.8,657.3l-97.6,103.5l-3.4,28.4l4.6,0.5
	L993.1,661L962.8,657.3L962.8,657.3z M1002.5,662.9L872,791.5l15.1-9.5l121-119.1H1002.5z"/>
<path class="st18" d="M953.4,731l-20.8,41.6l48,4.7l-8.3-44.4c0,0,15.1-1.9,17-18.9c0,0,3.8-24.6-20.8-28.4c0,0-20.8-1.9-26.5,18.9
	C942,704.5,938.2,723.4,953.4,731z"/>
<path class="st18" d="M972.2,681.8c0,0,24.6,3.8,24.6,28.4c0,0,1.9,20.8-15.1,28.4l3.8,52.9h7.6l-7.6-49.2c0,0,21.1-11.4,13.7-38.7
	c-1.5-5.6-4.7-10.6-9.2-14.4C984.9,685.1,978.8,682.5,972.2,681.8L972.2,681.8z"/>
<path class="st19" d="M968.5,683.7c0,0,22.7,3.8,22.7,28.4c0,0,0,15.1-17,22.7l7.6,58.6h7.6l-9.5-56.7c0,0,12.3-4.8,14.5-20.9
	c2.2-15.4-8.4-29.6-23.8-31.8c-0.2,0-0.5-0.1-0.7-0.1L968.5,683.7z"/>
<path class="st13" d="M1127.3,865.3c0,0-22.5-2.6-36.8,36.5l44.3-4.4L1127.3,865.3z M1136.8,593c0,0-15.1,49.2,37.8,66.2l9.5-60.5
	L1136.8,593z M792.6,547.6l-9.5,56.7c0,0,47.3-1.9,53-51.1L792.6,547.6z M752.9,806.7l-5.7,43.5l54.8,7.6
	C802.1,857.7,794.5,816.1,752.9,806.7z"/>
<path class="st7" d="M1085.7,371.7c0,0,39.7-32.1,100.2,0l-3.7,7.6c0,0,37.8-5.7,64.3,49.2c0,0,11.3-75.6,54.8,0
	c0,0,56.7-7.6,64.3,32.1c0,0-9.5,18.9,1.9,32.1c0,0-7.6-28.4,11.3-26.5c0,0,32.1,1.9,54.8,32.1l7.6,5.7c0,0,24.6,3.8,56.7,49.2
	c10.2,13.3,19.4,27.4,27.6,42.1c4.6,8.4,9.6,16.6,15.1,24.5c18.5,26.8,59.1,95.3,44.3,160.3c0,0-5.7,102.1-28.4,130.5
	c0,0,34-58.6,39.7-130.5c0,0,7.6-92.7-51.1-166.4l-32.2-60.5l-11.3-5.7c0,0-24.6-39.7-60.6-49.2v-3.8c0,0-20.8-32.1-66.2-34
	l-1.9-7.6c0,0-13.2-45.4-70-32.1c0,0-5.7-53-60.5-30.2c0,0-34-18.9-54.8-15.1c0,0,22.7-39.7-64.3-28.4c0,0-34.9,6-44.8,10.5
	L1085.7,371.7z"/>
<linearGradient id="SVGID_8_" gradientUnits="userSpaceOnUse" x1="787.0868" y1="847.555" x2="903.9968" y2="1214.745" gradientTransform="matrix(1 0 0 -1 0 1511.0122)">
	<stop  offset="0.26" style="stop-color:#1797E5"/>
	<stop  offset="0.4" style="stop-color:#1694E2"/>
	<stop  offset="0.51" style="stop-color:#138BD8"/>
	<stop  offset="0.61" style="stop-color:#0E7CC8"/>
	<stop  offset="0.7" style="stop-color:#0767B1"/>
	<stop  offset="0.77" style="stop-color:#005099"/>
</linearGradient>
<path class="st20" d="M645.1,464.9c0,0,136.1-159.4,298.8-98.9c123.4,45.9,115.4,87,115.4,87s-83.7,13.1-122.6,66.2
	c0,0-75.8-82.8-173-12.7C763.7,506.5,761.8,395.7,645.1,464.9L645.1,464.9z"/>
<path class="st7" d="M1204.9,1317.2c0,0-12.5,16-46.9-4.3c0,0-30.7,25.1-100.6,10c0,0-47.3,30.2-104-17c0,0-77.5,17-96.5-45.4
	c0,0-47.3,45.4-70-18.9c0,0-47.3,5.7-53-54.8c0,0,11.3-18.9,0-28.4c0,0-37.8,39.7-37.8-26.5c0,0-98.3-30.3-34-77.5
	c0,0-92.7,0-49.2-73.8c0,0-64.3-28.4-30.3-85.1c0,0-39.7-18.9-18.9-83.2l13.2-5.7c0,0-35.9-41.6-5.7-81.3l1.9-7.6
	c0,0-30.3-83.2,18.9-90.8l18.9-1.9c0,0-17-45.4,17-75.6c0,0-15.1-73.8,126.7-149.4h-26.4c0,0-98.3,43.5-122.9,139.9l7.6,9.5
	c0,0-16,9.6-21.5,46.5c-0.9,6.3-4,12.2-9.2,15.8c-16.5,11.3-50.5,48.6-24.1,105.9c0,0-22.7,49.2,3.8,88.9c0,0-39.7,51.1,5.7,94.5
	c0,0-34,51.1,30.3,83.2c0,0-28.4,56.7,26.5,73.8c0,0-7.6,70,58.6,85.1c0,0-1.9,37.8,39.7,43.5l3.8,9.5c0,0-20.8,45.4,45.4,62.4
	c0,0,30.2,66.2,75.6,28.4c0,0,26.5,45.4,98.3,34l9.5,5.7c0,0,43.5,32.2,104,13.2c0,0,47.3,22.7,107.8-11.3c0,0,32.2,17,60.5-7.6
	L1204.9,1317.2z"/>
<path class="st21" d="M957.1,1048.7c0,0-105.9-28.4-92.7-121c0,0-32.1-43.5-18.9-87c0,0,7.6-30.3,17-28.4c0,0,28.4-37.8,54.8-34
	c0,0-1.9,18.9,5.7,22.7c0,0,32.1-47.3,62.4-43.5c0,0-13.2,35.9,0,53c0,0,24.6-41.6,51.1-41.6c0,0-3.8,24.6,1.9,35.9
	c0,0,30.2-9.5,30.2,87c0,0,22.7,7.6,34,28.4l-3.8,105.9L957.1,1048.7z"/>
<linearGradient id="SVGID_9_" gradientUnits="userSpaceOnUse" x1="1109.2694" y1="569.6263" x2="1020.5294" y2="596.2963" gradientTransform="matrix(1 0 0 -1 0 1511.0122)">
	<stop  offset="0.26" style="stop-color:#1797E5"/>
	<stop  offset="0.77" style="stop-color:#005099"/>
</linearGradient>
<path class="st22" d="M1012.3,822.9c0,0,64,144.5-19.2,189.9l88.9-13.3l3.8-88.9c0,0-11.5-10.1-25.6-12.6c0,0,4.8-59.2-14.1-82
	L1012.3,822.9z"/>
<path class="st7" d="M866.4,819.9c0,0-26.5,51,13.2,105.9c0,0-13.2,81.3,83.2,107.8l-24.6,1.9c0,0-81.3-36-66.2-109.7
	c0,0-43.5-47.3-7.6-109.7L866.4,819.9z M1324.2,1292.4l45.2-11.1c0,0,45.4-11.3,81.3,5.7c0,0,45.4,28.4,5.7,109.7h-15.1
	c0,0,20.8-22.7,18.9-58.6c0,0,0-17-7.6-30.3c0,0-13.2-26.5-73.8-18.9l-15.1,3.8c-14.2,10.3-32.5,13.2-49.2,7.6L1324.2,1292.4z"/>
<path class="st23" d="M1216.2,816.1c0,0-66.2-3.8-79.4,77.5l-39.7,7.6c0,0-20.8,26.5-3.8,56.7c0,0-7.6,24.6,1.9,39.7
	c0,0-155.1-11.3-189.1,104c0,0-20.8,202.3,289.3,213.7c0,0,185.3,9.5,323.4-162.6l30.2-9.4l41.6,81.3c0,0,15.1-115.3,100.2-151.3
	c0,0-94.6-92.7-47.3-208l-94.6,56.7c0,0-18.9-60.5-35.9-60.5c0,0-1.9-13.2-13.2-17c0,0-11.3-22.7,1.9-60.5c0,0-37.8-18.9-88.9,39.7
	c0,0-18.9-7.6-24.6,13.2l-22.7-7.6c0,0-7.6-26.5-26.5-24.6c0,0-7.6-7.6,13.2-71.9c0,0-54.8-7.6-90.8,51.1c0,0-20.8-7.6-26.5,13.2
	C1235.1,797.2,1221.9,799.1,1216.2,816.1z"/>
<linearGradient id="SVGID_10_" gradientUnits="userSpaceOnUse" x1="1232.3983" y1="620.8846" x2="1110.8484" y2="592.5746" gradientTransform="matrix(1 0 0 -1 0 1511.0122)">
	<stop  offset="0.26" style="stop-color:#1797E5"/>
	<stop  offset="0.77" style="stop-color:#005099"/>
</linearGradient>
<path class="st24" d="M1204.9,940.9l-83.2-17l28.7-7.2c2-0.2,3.7-1.7,4.3-3.7c3.8-14.4,21.8-71.9,73-81.8l-5.7-5.7
	c0,0-56.7-1.9-75.6,77.5l-43.5,9.5v32.1l90.8,22.7L1204.9,940.9z"/>
<radialGradient id="SVGID_11_" cx="1384.2325" cy="566.198" r="404.26" gradientTransform="matrix(0.9932 0.1163 8.026359e-02 -0.6853 4.8131 1288.542)" gradientUnits="userSpaceOnUse">
	<stop  offset="0.26" style="stop-color:#1797E5"/>
	<stop  offset="0.77" style="stop-color:#005099"/>
</radialGradient>
<path class="st25" d="M1074.4,1281.3c0,0-73.8-111.6,11.3-104c0,0,18.9,0,90.8,20.8c0,0,22.7,3.8-3.8-26.5c0,0-37.8-32.2-66.2-41.6
	c0,0-24.6-30.3,32.2-17l32.2,5.7c0,0,30.3,7.6,37.8-26.5c0,0,5.7-34-41.6-30.3c0,0-5.7,0-13.2,5.7c0,0,26.5-37.8,71.9-13.2
	c6.8,2.9,13.1,6.7,18.9,11.3l22.7-20.8l20.8-3.8l-17-54.8c0,0-20.8,5.7-7.6-15.1l47.3-9.5c0,0,30.3-9.5,41.6-20.8
	c0,0,53-43.5,117.2-41.6c0,0,37.8-1.9,39.7-34c0,0,15.1,13.2,30.3,56.7c0,0,1.9,9.5,11.3,9.5l59.3-36.1l11.7,18.1
	c0,0-21.8,61.5,38.7,152.3c0,0-54.8,60.5-75.6,122.9l-27.3-61.4l-50.2,17.9C1507.5,1145.2,1392.1,1357,1074.4,1281.3L1074.4,1281.3z
	"/>
<path class="st0" d="M1119.8,426.6c0,0-3.8-58.6-28.4-28.4c0,0-45.4-71.9,28.4-170.2c0,0,34-17,22.7-49.2c0,0,5.7-18.9,45.4-28.4
	c0,0-22.7-49.2-88.9-32.2c0,0-17-26.5-51.1-1.9c0,0-319.6-68.1-455.7,306.4c0,0,132.4-45.4,183.4-20.8c0,0,22.7,9.5,15.1,49.2
	c0,0,100.2-54.8,149.4,17c0,0,60.5-64.3,102.1-49.2c0,0,17,7.6,26.5,32.1"/>
<path class="st26" d="M1140.6,528.7c0,0-70-85.1-149.4-26.5c0,0-52-1-74.7,46.3c0,0-3.8,5.7-3.8,9.5c0,0,30.3,7.6,30.3,45.4
	c0,0,7.6,0,26.5-49.2c0,0,30.3,5.7,34,47.3c0,0,7.6,1.9,24.6-11.4c0,0,5.7-32.1,15.1-35.9c0,0,24.6,0,30.3,41.6
	c0,0,3.8,7.6,37.8-22.7l51.1,5.7C1162.3,578.8,1171.8,563.7,1140.6,528.7L1140.6,528.7z"/>
<path class="st7" d="M1204.9,929.6c0,0-5.6,28.4-13.2,30.2l-85.1-20.8c0,0-1.9-15.1,5.7-24.6l35.9-5.1c2.2-0.3,3.8-2.1,4-4.2
	c1.1-14.8,9.4-69.2,69.8-75.7l-4-3.8c0,0-58.4-5.7-71.6,66.2c0,0-1.9,9.5-9.5,11.3l-34,5.7c0,0-13.2,18.9-3.8,39.7l92.7,24.6
	C1191.7,973.1,1208.7,976.8,1204.9,929.6L1204.9,929.6z M1280.5,950.4c0,0-17,17-17,32.2c0,0,115.4-3.8,175.9,32.1L1254,990.1
	C1254,990.1,1240.8,976.8,1280.5,950.4z M1148.1,1084.6c0,0,6.6-23.1,29.1-21.5c3.8,0.3,7.3,2,9.8,4.7c4.4,4.8,10.2,14.3,10.2,31.9
	C1197.3,1099.8,1186,1060.1,1148.1,1084.6L1148.1,1084.6z M1044.1,1050.6c0,0,6.6-23.1,29.1-21.5c3.8,0.3,7.3,2,9.8,4.7
	c4.4,4.8,10.2,14.3,10.2,31.9C1093.3,1065.7,1082,1026,1044.1,1050.6L1044.1,1050.6z"/>
<path class="st27" d="M1151,1085.6c0,0,30.3-26.5,37.8,13.2 M1050.2,1053.5c0,0,25.2-27,35.8,8.6 M1280.5,948.5
	c0,0-32.4,15.5-31.5,35.6c0.3,5.5,4.4,10,9.9,10.7l180.5,23.7"/>
<path class="st28" d="M1276.4,997.1c0,0-9.5,40.9,34.6,60.9c16,7.1,33.7,9.4,51,6.5c21.2-3.5,49.5-14.7,57.9-48.5L1276.4,997.1z"/>
<path class="st29" d="M1208.7,929.6c0,0,3,24.7-3.2,39.1c-3.1,6.9-10.8,10.5-18.1,8.4l-95.4-25.6"/>
<path class="st30" d="M1180.3,976.8c0,0,15.1,22.7-3.8,43.5c0,0-37.8-18.9-88.9-18.9l7.6-47.3L1180.3,976.8z"/>
<path class="st31" d="M1199.2,1039.3c0,0-20.3-20.8-46.1-27.4"/>
<path class="st6" d="M1551.7,606.2c0,0-58.5-21.7-50.9,65.2c0,0,6.6-80.4,60.4-50.2L1551.7,606.2z"/>
<linearGradient id="SVGID_12_" gradientUnits="userSpaceOnUse" x1="654.015" y1="1266.3618" x2="998.865" y2="1231.2518" gradientTransform="matrix(1 0 0 -1 0 1511.0122)">
	<stop  offset="0.33" style="stop-color:#F3F5F7"/>
	<stop  offset="0.78" style="stop-color:#8099B9"/>
</linearGradient>
<path class="st32" d="M1030.9,142.9c0,0-4.7,25.5,4.7,40.6c0,0-128.6,43.5-226.9,213.7c0,0-22.7-68.1-162.6-13.2
	C646.1,384,702.8,147.6,1030.9,142.9L1030.9,142.9z"/>
<linearGradient id="SVGID_13_" gradientUnits="userSpaceOnUse" x1="829.5034" y1="1203.5961" x2="1056.4033" y2="1203.5961" gradientTransform="matrix(1 0 0 -1 0 1511.0122)">
	<stop  offset="0.33" style="stop-color:#F3F5F7"/>
	<stop  offset="0.78" style="stop-color:#8099B9"/>
</linearGradient>
<path class="st33" d="M1039.4,196.8l17,17c0,0-100.2,105.9-122.9,204.3c0,0-39.7-28.4-104-5.7C829.5,412.4,895.7,263,1039.4,196.8
	L1039.4,196.8z"/>
<linearGradient id="SVGID_14_" gradientUnits="userSpaceOnUse" x1="956.2034" y1="1186.5762" x2="1069.6633" y2="1186.5762" gradientTransform="matrix(1 0 0 -1 0 1511.0122)">
	<stop  offset="0.33" style="stop-color:#F3F5F7"/>
	<stop  offset="0.78" style="stop-color:#8099B9"/>
</linearGradient>
<path class="st34" d="M1069.7,228.9c0,0-64.3,83.2,0,183.4c0,0-51.1-45.4-113.5,7.6C956.2,419.9,994,283.8,1069.7,228.9z"/>
<path class="st6" d="M1367.2,1009c0,0-21.4,36.6,17.8,48.6c0,0,29.1-18.4,32.2-42L1367.2,1009z M1144.6,967.3c0,0-21.1,26.5-4,37.9
	l35.9,9.5c0,0,15.7-25.7-5.4-40.3L1144.6,967.3z"/>
<circle class="st19" cx="1365.6" cy="1041.1" r="9.5"/>
<circle class="st19" cx="1136.8" cy="986.3" r="9.5"/>
<path class="st35" d="M1377,719.7c0,0,1.9-22.7,18.9-24.6c0,0,22.7,0,24.6,20.8c0,0-5.7-34,18.9-39.7"/>
<path class="st6" d="M1605.5,774c0,0-26.2-24.1-60.2,49.6c0,0,44.5-46.3,60.1-42.1L1605.5,774z M1600.9,719.9c0,0-33-47.6-53.8,18.6
	c0,0,10.2-17.9,21.2-25.3c4.3-2.9,9.9-2.6,13.9,0.7c6.3,5.3,15.9,18.3,23.1,49.4L1600.9,719.9z M1509.2,544.4c0,0-43.4,7-28.3,50.5
	c0,0-2.8-41.7,44-38.8L1509.2,544.4z M1457.6,496.1c0,0-28.8,2.4-9.5,47.5c1.5,3.5,0.3,7.5-2.9,9.6c-3.2,2.2-7.6,1.6-10.2-1.2
	c-4.1-4.5-12-13.7-19.4-18.8c-2.8-1.9-6.6-1.2-8.6,1.5c-0.4,0.6-0.7,1.3-0.9,2c-1.7,7.2-1.8,22.8,4.9,56.2c0,0-24.8-37.2-14-63.9
	c3.9-9.6,15.6-13.8,24.4-8.3c3.3,2.1,6.1,4.8,8.5,7.9C1430,528.7,1417.2,478.7,1457.6,496.1L1457.6,496.1z M1394.2,456.2
	c0,0-45,3.3-26.8,35.8c0.6,1.1,1.5,2.1,2.4,3l7.4,6.8c2.1,2.5,2.3,6,0.6,8.8c-1.6,2.8-4.8,4.2-8,3.6c-9.5-1.8-30.8-10.1-43.5,9.9
	c-1.9,3-2.4,6.7-1.4,10.1c1.8,5.5,5.4,10.2,10.3,13.4c0,0-30.2-15.1-7.6-37.8c0,0,7.6-9.5,28.4-9.5c0,0-28.1-49.5,25.7-48.4
	L1394.2,456.2z M1163.2,392.5c0,0,43.4-41.6,75.4,9.6c1.4,2.2,2.5,4.5,3.3,7l4.6,13.7c0,0-22.7-1.9-34,18.9l-7.6-7.6
	c0,0,3.8,22.7,35.9,54.8c0,0,1.9-15.1-18.9-37.8c0,0,22.7-34,47.3-11.4c0,0,11.3,5.7,32.1,39.7c0,0-5.7-32.1-41.6-54.9
	c0,0-11.3-49.2-47.3-58.6C1212.4,366,1178.4,358.5,1163.2,392.5L1163.2,392.5z M1085.6,107.9c0,0-15,12.3-1.8,53.9
	c0,0-17-26.5-11.3-54.8L1085.6,107.9z M1093.3,175c0,0,25.2,26.5,51.4,14.2l-1.5,12.6C1143.2,201.8,1102.8,201.5,1093.3,175z"/>
<path class="st6" d="M1042.2,144.8c0,0,7.6-20.8,32.2-34l-28.4,1.9C1046,112.7,1040.4,120.2,1042.2,144.8z M1082,199.6
	c0,0,13.2,26.5,54.8-3.8l-3.8,26.5C1133,222.3,1091.4,229.9,1082,199.6z"/>
<linearGradient id="SVGID_15_" gradientUnits="userSpaceOnUse" x1="1163.3071" y1="1322.9622" x2="1110.5171" y2="1405.1521" gradientTransform="matrix(1 0 0 -1 0 1511.0122)">
	<stop  offset="0.33" style="stop-color:#F3F5F7"/>
	<stop  offset="0.78" style="stop-color:#8099B9"/>
</linearGradient>
<path class="st36" d="M1180.3,148.6c0,0-37.8,11.3-43.5,35.9c0,0-52.9-17-41.6-62.4C1095.2,122.1,1163.2,105.1,1180.3,148.6z"/>
<linearGradient id="SVGID_16_" gradientUnits="userSpaceOnUse" x1="1703.8529" y1="1144.9772" x2="1749.4929" y2="1074.5072" gradientTransform="matrix(-0.87 -0.49 0.49 -0.87 2342.1584 2108.6309)">
	<stop  offset="0.33" style="stop-color:#F3F5F7"/>
	<stop  offset="0.78" style="stop-color:#8099B9"/>
</linearGradient>
<path class="st37" d="M1346.7,277.2c0,0,24,26.8,17,51.1c0,0,53,11.4,64.3-26.5C1428,301.7,1382.7,247.4,1346.7,277.2z"/>
<linearGradient id="SVGID_17_" gradientUnits="userSpaceOnUse" x1="1461.7163" y1="620.0832" x2="1442.2263" y2="713.9032" gradientTransform="matrix(0.7112 -0.703 -0.703 -0.7112 902.4117 2315.2424)">
	<stop  offset="0.33" style="stop-color:#F3F5F7"/>
	<stop  offset="0.78" style="stop-color:#8099B9"/>
</linearGradient>
<path class="st38" d="M1493.7,788.9c0,0-14.7,37.8-1.4,59.3c0,0-53,15.1-77.5-15.1C1414.8,833.1,1456.4,774.5,1493.7,788.9
	L1493.7,788.9z"/>
<linearGradient id="SVGID_18_" gradientUnits="userSpaceOnUse" x1="1373.2666" y1="754.4883" x2="1332.6067" y2="830.5183" gradientTransform="matrix(0.71 -0.7 -0.7 -0.71 903.1219 2284.8389)">
	<stop  offset="0.33" style="stop-color:#F3F5F7"/>
	<stop  offset="0.78" style="stop-color:#8099B9"/>
</linearGradient>
<path class="st39" d="M1342.9,742.4c0,0-18.9,35.9-11.3,70c0,0-47.4,13.9-68.4-19.6C1263.1,792.8,1301.3,725.3,1342.9,742.4
	L1342.9,742.4z"/>
<linearGradient id="SVGID_19_" gradientUnits="userSpaceOnUse" x1="1233.1138" y1="966.9204" x2="1262.9537" y2="920.8204" gradientTransform="matrix(0.4798 -0.8774 -0.8774 -0.4798 1247.9518 2344.8821)">
	<stop  offset="0.33" style="stop-color:#F3F5F7"/>
	<stop  offset="0.78" style="stop-color:#8099B9"/>
</linearGradient>
<path class="st40" d="M1034.5,771c0,0-7.8,22.4,4,43.2c0,0-25,17.7-45.4,0C993.1,814.2,1004.4,780.2,1034.5,771z"/>
<linearGradient id="SVGID_20_" gradientUnits="userSpaceOnUse" x1="1163.5315" y1="1040.3928" x2="1193.3815" y2="994.2928" gradientTransform="matrix(0.5766 -0.817 -0.817 -0.5766 1110.0002 2338.301)">
	<stop  offset="0.33" style="stop-color:#F3F5F7"/>
	<stop  offset="0.78" style="stop-color:#8099B9"/>
</linearGradient>
<path class="st41" d="M977.1,764.9c0,0-10.3,21.4-1,43.3c0,0-26.9,14.8-45.1-5.2C931,803,946.1,770.5,977.1,764.9z"/>
<linearGradient id="SVGID_21_" gradientUnits="userSpaceOnUse" x1="788.4902" y1="1115.7723" x2="820.7402" y2="1065.9623" gradientTransform="matrix(-0.33 0.94 -0.94 -0.33 2207.2861 198.2738)">
	<stop  offset="0.33" style="stop-color:#F3F5F7"/>
	<stop  offset="0.78" style="stop-color:#8099B9"/>
</linearGradient>
<path class="st42" d="M908.9,626.1c0,0,10.8-19.4,34-24.6c0,0-3.4-35.2-30.2-38.5C912.8,563,895.6,597.6,908.9,626.1z"/>
<linearGradient id="SVGID_22_" gradientUnits="userSpaceOnUse" x1="763.1897" y1="1061.7083" x2="797.2097" y2="1009.1583" gradientTransform="matrix(-0.33 0.94 -0.94 -0.33 2207.2861 198.2738)">
	<stop  offset="0.33" style="stop-color:#F3F5F7"/>
	<stop  offset="0.78" style="stop-color:#8099B9"/>
</linearGradient>
<path class="st43" d="M968.9,618.9c0,0,9.4-14.1,32.7-19.3c0,0-4.7-38.8-29.3-42.5C972.2,557,953.4,591.1,968.9,618.9L968.9,618.9z"
	/>
<linearGradient id="SVGID_23_" gradientUnits="userSpaceOnUse" x1="739.6763" y1="995.4026" x2="770.3163" y2="948.0826" gradientTransform="matrix(-0.33 0.94 -0.94 -0.33 2207.2861 198.2738)">
	<stop  offset="0.33" style="stop-color:#F3F5F7"/>
	<stop  offset="0.78" style="stop-color:#8099B9"/>
</linearGradient>
<path class="st44" d="M1037,618.9c0,0,11.5-20.8,34.8-26c0,0-2.7-32.6-29.5-35.9C1042.2,557,1023.7,590.4,1037,618.9z"/>
<linearGradient id="SVGID_24_" gradientUnits="userSpaceOnUse" x1="1114.4486" y1="1082.371" x2="1144.5986" y2="1035.801" gradientTransform="matrix(0.5766 -0.817 -0.817 -0.5766 1110.0002 2338.301)">
	<stop  offset="0.33" style="stop-color:#F3F5F7"/>
	<stop  offset="0.78" style="stop-color:#8099B9"/>
</linearGradient>
<path class="st45" d="M915.5,784c0,0-13,17.4-3.8,39.4c0,0-25,11-43.2-9C868.6,814.4,885.3,782.1,915.5,784z"/>
<path class="st6" d="M1097.8,116.7c0,0-10.2,41.3,42.8,67.8l-3.8,5.7c0,0-56.7-17-45.4-71.9L1097.8,116.7z M1443.1,296.1
	c0,0,5.7,26.4-26.5,45.4c0,0,32.2-9.5,34-39.7L1443.1,296.1z"/>
<radialGradient id="SVGID_25_" cx="741.5179" cy="718.5274" r="376.4088" gradientTransform="matrix(1 0 0 -0.63 0 1457.8149)" gradientUnits="userSpaceOnUse">
	<stop  offset="0.17" style="stop-color:#3FC0E5"/>
	<stop  offset="0.62" style="stop-color:#20A1E6"/>
</radialGradient>
<path class="st46" d="M881.5,1270c0,0-274.2-162.6-206.1-533.3l-73.8,71.8C601.6,808.5,588.4,1122.5,881.5,1270L881.5,1270z"/>
<path class="st7" d="M686.7,668.6c0,0,17,24.6,39.7,0C726.4,668.6,706.6,700.8,686.7,668.6L686.7,668.6z"/>
<path class="st6" d="M1452.4,308.3c0,0,8.5,16.9,2.3,40.8c0,0,9.4-9.8,11.9-34.4L1452.4,308.3z M1356.2,341.5
	c0,0,15.1,22.7,49.2,5.7c0,0-34,7.6-47.3-11.4L1356.2,341.5z"/>
<path class="st6" d="M1356.2,345.2c0,0,5.7,34,41.6,30.3c0,0-19.6,11.7-41,2.1L1356.2,345.2z M1428,298c0,0-11.3,43.5-68.1,26.5
	l-1.9,9.4c0,0,64.3,18.9,83.2-37.8L1428,298z M1017.7,1300.2c0,0,56.2-1.5,57.4,54.1l-22.1-3.3
	C1053,1351,1066.8,1313.5,1017.7,1300.2L1017.7,1300.2z M928.8,1260.5c0,0,42.2,20.6,24.9,75.6l-13.5-4.9
	C940.2,1331.1,955.2,1275.6,928.8,1260.5L928.8,1260.5z M743.5,1139.5c0,0,24.6,49.2-30.3,62.4l-11.3-17
	C701.9,1184.9,745.3,1196.2,743.5,1139.5z M650.8,1046.8c0,0-1.9,24.6-37.8,18.9l1.8-10.6c0-0.3,0.3-0.5,0.6-0.4c0.1,0,0.1,0,0.2,0
	C619,1056.4,637.2,1063.8,650.8,1046.8L650.8,1046.8z M609.2,751.8c0,0-15.2,68.1-53,51.1l-7.6,15.1
	C548.7,818,609.2,842.6,609.2,751.8z M546.8,700.8c0,0,26.4,54.8,51.1-32.2c0,0,3.8,77.5-49.2,60.5L546.8,700.8z M592.2,593
	c0,0-3.8,41.6,45.4,24.6c0,0-43.5,41-63.3-6.9L592.2,593z M607.3,528.7c0,0,13.2,39.7,71.9-18.9c0,0-56.7,83.2-3.8,87
	c0,0-47.3,7.6-26.5-47.3c0,0-22,21.1-46.9-1.7L607.3,528.7z M654.6,691.3c0,0,20.8,5.7,30.3-18.9c0,0,11.3,20.8,32.1,9.5
	c0,0,7.6-3.8,13.2-20.8c0,0-13.2,30.2-34,17c0,0-11.3-5.7-11.3-22.7C684.8,655.4,679.2,691.3,654.6,691.3L654.6,691.3z"/>
<path class="st7" d="M1063,142.9c0,0,13.2,34,26.5,49.2C1089.5,192.1,1055.5,180.7,1063,142.9z M624.3,394.4
	c0,0,70-172.1,204.2-221.3c0,0,104-43.5,208-39.7c0,0-175.9-20.8-281.8,70C754.8,203.4,662.1,273.4,624.3,394.4L624.3,394.4z
	 M1089.5,231.8c0,0-58.6,64.3-11.3,172.1C1078.2,403.9,1010.1,315,1089.5,231.8z M1386.7,359.6c0,0,40,3.3,63.7-23.9
	C1450.3,335.7,1434.9,379.4,1386.7,359.6z M1484.8,349c0,0,62.4,58.6,53,202.3C1537.7,551.4,1569.8,411.4,1484.8,349L1484.8,349z"/>
<linearGradient id="SVGID_26_" gradientUnits="userSpaceOnUse" x1="1284.3049" y1="666.2391" x2="1230.5349" y2="693.6191" gradientTransform="matrix(1 0 0 -1 0 1511.0122)">
	<stop  offset="0.26" style="stop-color:#1797E5"/>
	<stop  offset="0.77" style="stop-color:#005099"/>
</linearGradient>
<path class="st47" d="M1233.2,842.6c0,0,3.8,13.2,20.8,22.7c0,0-26.5-47.3,30.2-49.2l-34-24.6
	C1250.2,791.5,1225.7,814.2,1233.2,842.6z"/>
<path class="st5" d="M664,375.5l-15.1,5.7c0,0,28.3-104,132.3-168.3c0,0,92.7-70,247.7-68.1c-1.1,2.4-1.8,4.9-1.9,7.6
	C1027.1,152.3,743.5,152.3,664,375.5z M834.2,407.6c0,0,68.1-145.6,204.2-208l3.8,3.8c0,0-104,34-200.5,202.3L834.2,407.6z"/>
<path class="st7" d="M1250.2,791.5c-0.9,5.4,0.4,10.9,3.8,15.1c0,0-22.7,17-17,43.5C1237,850.1,1216.2,806.7,1250.2,791.5z"/>
<path class="st5" d="M1059.2,241.2c0,0-62.4,51.1-98.3,172.1l7.6-5.7C968.5,407.6,985.5,332,1059.2,241.2z"/>
<path class="st6" d="M1259.7,787.7c0,0,22.7,34,77.5,20.8l7.6,3.8c0,0-54.8,30.3-96.4-22.7L1259.7,787.7z"/>
<path class="st6" d="M1244.6,793.4c0,0,13.2,34,43.5,37.8c0,0-28.4,1.9-51.1-32.2L1244.6,793.4z"/>
<linearGradient id="SVGID_27_" gradientUnits="userSpaceOnUse" x1="1450.9117" y1="617.0831" x2="1382.3917" y2="651.9631" gradientTransform="matrix(1 0 0 -1 0 1511.0122)">
	<stop  offset="0.26" style="stop-color:#1797E5"/>
	<stop  offset="0.77" style="stop-color:#005099"/>
</linearGradient>
<path class="st48" d="M1400,832.7c0,0-26.8,42.1-15.5,57.2c0,0,1.9,9.5,17,13.2c0,0-7.6-26.5,9.4-41.6c9.1,5.8,18.5,10.8,28.4,15.1
	l9.5-15.1C1448.8,861.5,1426.8,860.6,1400,832.7"/>
<path class="st6" d="M1303.2,835c0,0,41.6,1.9,41.6-26.5l7.6,9.5C1352.4,818,1348.6,840.7,1303.2,835L1303.2,835z M1237,801
	c0,0-13.2,18.9,0,49.2c0,0-24.6-22.7-22.7-35.9L1237,801z"/>
<path class="st6" d="M1314.6,865.3c0,0,41.6,15.1,49.2-37.8l-11.3-15.1C1352.4,812.3,1352.4,861.5,1314.6,865.3z M1395.9,840.7
	c0,0-18.9,26.5-9.5,53c0,0-20.8-11.3-1.9-58.6L1395.9,840.7z M1433.7,912.6c0,0,71.6,39.6,83.1-50.2l-9.3-12.2
	C1507.4,850.1,1507.4,933.4,1433.7,912.6L1433.7,912.6z"/>
<linearGradient id="SVGID_28_" gradientUnits="userSpaceOnUse" x1="1007.647" y1="595.7447" x2="849.127" y2="662.2747" gradientTransform="matrix(1 0 0 -1 0 1511.0122)">
	<stop  offset="0.26" style="stop-color:#1797E5"/>
	<stop  offset="0.77" style="stop-color:#005099"/>
</linearGradient>
<path class="st49" d="M883.4,825.6c0,0-17,73.8,70,119.1c0,0-30.3-64-37.8-120.3L883.4,825.6z"/>
<linearGradient id="SVGID_29_" gradientUnits="userSpaceOnUse" x1="1062.5701" y1="609.9742" x2="887.9901" y2="674.6142" gradientTransform="matrix(1 0 0 -1 0 1511.0122)">
	<stop  offset="0.26" style="stop-color:#1797E5"/>
	<stop  offset="0.77" style="stop-color:#005099"/>
</linearGradient>
<path class="st50" d="M946.7,810.4c0,0-14.2,87,59.6,132.4l-3.8-26.5c0,0-24.6-66.2-20.8-107.8L946.7,810.4z"/>
<path class="st6" d="M1454.5,878.5c0,0,46.8,8.1,52.7-23.4l-3.5-6.9C1503.7,848.2,1499.9,876.6,1454.5,878.5L1454.5,878.5z
	 M1395.9,831.2c0,0-3.8,17,28.4,37.8c0,0-20.8-1.9-34-30.2L1395.9,831.2z"/>
<path class="st6" d="M1412.9,827.5c0,0,24.6,37.8,83.2,15.1l7.6,13.2c0,0-68.1,32.1-105.9-26.5L1412.9,827.5z"/>
<path class="st7" d="M1405.3,889.9c0,0,26.5,13.2,79.4,5.7C1484.8,895.5,1433.7,929.6,1405.3,889.9z M1259.7,842.6
	c0,0,24.6,11.3,77.5,3.8C1337.2,846.4,1295.6,882.3,1259.7,842.6z"/>
<path class="st6" d="M860.7,819.9c0,0,18.9,18.9,56.7,9.5l5.7-28.4l-13-5.5c0,0-6,13-4.1,26.3c0,0-22.7,5.7-39.7-9.5L860.7,819.9z"
	/>
<path class="st6" d="M861.6,820.8c0,0,1.9,13.2,22.7,15.1c0,0-18,2.8-27.4-12.3L861.6,820.8z M894.7,836.9c0,0,18.9,1.9,22.7-11.3
	l1.9,11.3C911.5,840.3,902.6,840.3,894.7,836.9L894.7,836.9z"/>
<path class="st6" d="M928.8,804.8c0,0-11.3,47.3,1.9,77.5c0,0-24.6-35.9-11.3-79.4L928.8,804.8z M932.6,797.2c0,0,18.9,17,49.2,5.7
	v5.6c0,0-32.1,17-51-5.7L932.6,797.2z"/>
<path class="st6" d="M926.9,802.9c5.7,8.7,14.5,14.8,24.6,17c0,0-18.9,0-28.4-11.3L926.9,802.9z M964.7,819.9c0,0,17-3.8,17-13.2
	l1.9,9.5C983.6,816.1,977.9,821.8,964.7,819.9z"/>
<path class="st6" d="M981.7,814.2c0,0-18.9,34,15.1,85.1c0,0-20.8-56.7-7.6-85.1H981.7z"/>
<path class="st6" d="M991.2,810.4c0,0,26.5,17,49.2,0l7.6,5.7c0,0-26.5,22.7-60.5,1.9L991.2,810.4z"/>
<path class="st6" d="M985.5,818c0,0,5.7,11.3,30.2,15.1c0,0-18.9,1.9-32.1-5.7L985.5,818z M1025.2,831.2c0,0,15.1,0,22.7-17l5.7,9.5
	C1045.4,829.7,1035.3,832.4,1025.2,831.2z M1032.8,846.4c0,0,18.9-1.9,24.6-17l1.9,9.4C1059.2,838.8,1051.7,848.3,1032.8,846.4z
	 M1044.1,551.4c0,0,0-35.9,56.7-34c0,0-71.9-15.1-64.3,43.5L1044.1,551.4z M1074.4,566.5c0,0,7.6,11.4,3.8,28.4l8.4-2.5
	C1086.5,592.3,1085.7,572.2,1074.4,566.5z M973.4,555.4c0,0,10.2-40,76.4-45.7c0,0-79.4-1.9-83.2,45.4L973.4,555.4z"/>
<linearGradient id="SVGID_30_" gradientUnits="userSpaceOnUse" x1="1095.4919" y1="983.0588" x2="1175.922" y2="928.2188" gradientTransform="matrix(1 0 0 -1 0 1511.0122)">
	<stop  offset="0.26" style="stop-color:#1797E5"/>
	<stop  offset="0.77" style="stop-color:#005099"/>
</linearGradient>
<path class="st51" d="M1116,509.8c0,0,47.3,35.9,45.4,66.2l-51-5.7C1110.4,570.3,1136.8,553.3,1116,509.8z"/>
<path class="st6" d="M972.2,1160.3c0,0,39.7-60.5,172.1,13.2C1144.4,1173.5,1032.8,1073.3,972.2,1160.3L972.2,1160.3z"/>
<path class="st7" d="M972.2,1171.6c0,0,35.9-56.7,174,11.3C1146.2,1183,1027.1,1090.3,972.2,1171.6z"/>
<path class="st7" d="M1193.5,1046.8c0,0-155.3-82.4-246.9,22.7c-18,20.8-23.6,49.6-14.5,75.6c16.6,47.8,63.4,122.4,195.2,143.8
	c0,0,221.2,47.3,374.4-143.7l28.4-26.5c0,0-153.2,266.6-476.6,164.5c0,0-146.3-43.2-140-178.1c0.1-1.2,0.2-2.4,0.5-3.5
	c3.3-13.2,27.6-89.3,143.3-94.5c0,0,102.1-9.5,138,35.9l3.8,7.6C1197.5,1049.1,1195.6,1047.8,1193.5,1046.8L1193.5,1046.8z"/>
<path class="st7" d="M1621.9,913.4c0,0-13.4,72.8,47.2,148.5l-6.6,17.1c0,0-49.2,26.5-75.7,117.2l-30.2-58.6c0,0-3.8-5.7-15.1-1.9
	l-20.8,7.6l1.9-7.6l22.7-9.4c0,0,13.2-3.8,18.9,7.6l20.8,43.5c0,0,13.2-64.3,71.9-105.9c0,0-52.9-83.2-43.5-145.6L1621.9,913.4"/>
<path class="st6" d="M1488.5,1173.5c0,0,47.3-56.7,51.1-73.8c0,0-13.2,47.3-34,73.8H1488.5z"/>
<path class="st7" d="M1539.6,980.6c0,0,45.4-26.5,70-85.1l15.1-3.8C1624.7,891.8,1628.5,965.5,1539.6,980.6z"/>
<path class="st6" d="M1617.1,878.5c0,0-15.1,68.1-77.5,102.1c0,0,64.3-28.4,92.7-92.7L1617.1,878.5z M1560.4,1033.6
	c0,0,49.3,38.7,119.2,26.9v18.2C1679.6,1078.7,1609.6,1080.9,1560.4,1033.6L1560.4,1033.6z"/>
<path class="st17" d="M775.6,746.1L838,680h-3.8l-62.4,66.2H775.6z M760.5,744.2l68.1-66.2l-17-1.9l-66.2,66.2L760.5,744.2
	L760.5,744.2z"/>
<path class="st18" d="M800.2,683.7l56.7,11.3v-5.7L800.2,683.7z M788.8,736.7l62.4,5.7l-1.9,5.7L788.8,736.7L788.8,736.7z
	 M964.7,668.6l85.1,13.2l-13.2,107.8l7.6-3.8l13.2-107.8L964.7,668.6L964.7,668.6z M1074.4,715.9l54.8,11.3l-56.7-3.8L1074.4,715.9
	L1074.4,715.9z M1064.9,770.7l54.8,11.3l-54.8-5.7V770.7z"/>
<path class="st19" d="M1087.6,717.8l88.9,13.2l39.7,58.6l-35.9-45.4l-5.7,53h-3.8l3.8-60.5L1087.6,717.8z"/>
<path class="st18" d="M1159.5,787.7c0,0,24.6,0,30.3,26.5C1189.7,814.2,1189.7,785.9,1159.5,787.7z"/>
<path class="st19" d="M892.8,666.7c0,0-7.6,81.3-15.1,111.6C877.7,778.3,883.4,693.2,892.8,666.7z"/>
<path class="st19" d="M947.7,661l-62.4-5.7c0,0-9.5,90.8-17,128.6c0,0,5.7-100.2,13.2-136.2L947.7,661z M747.2,740.5l11.4-64.3
	l92.7,11.3l-98.3-17L747.2,740.5L747.2,740.5z"/>
<path class="st17" d="M1047.9,649.7l-17,17l-15.1-1.9l17-17L1047.9,649.7z"/>
</svg>
